<svg xmlns="http://www.w3.org/2000/svg" width="318.725" height="213.218" viewBox="0 0 318.725 213.218">
  <g id="master" transform="translate(-1434.108 -429)">
    <path id="Path_1" data-name="Path 1" d="M657.023,213.218h-251.1a33.91,33.91,0,0,1-33.811-33.811V33.811A33.91,33.91,0,0,1,405.919,0h251.1a33.91,33.91,0,0,1,33.81,33.811v145.6a33.91,33.91,0,0,1-33.81,33.811" transform="translate(1062 429)" fill="#fff"/>
    <g id="Group_1" data-name="Group 1">
      <path id="Path_2" data-name="Path 2" d="M618.241,172.364v.362h.337a.358.358,0,0,0,.181-.046.162.162,0,0,0,.067-.139.153.153,0,0,0-.067-.134.322.322,0,0,0-.181-.046h-.337Zm.341-.255a.621.621,0,0,1,.4.117.388.388,0,0,1,.142.32.367.367,0,0,1-.114.281.553.553,0,0,1-.323.135l.452.515h-.348l-.416-.512h-.134v.512h-.291V172.11h.628Zm-.091,1.839a1.076,1.076,0,0,0,.444-.09,1.16,1.16,0,0,0,.606-.606A1.139,1.139,0,0,0,619.3,172a1.154,1.154,0,0,0-.361-.245,1.128,1.128,0,0,0-.444-.085,1.189,1.189,0,0,0-.452.085,1.139,1.139,0,0,0-.61,1.51,1.084,1.084,0,0,0,.241.361,1.155,1.155,0,0,0,.369.245,1.133,1.133,0,0,0,.452.09m0-2.62a1.516,1.516,0,0,1,1.062.434,1.461,1.461,0,0,1,.319,1.612,1.513,1.513,0,0,1-.319.468,1.637,1.637,0,0,1-.476.317,1.541,1.541,0,0,1-1.178,0,1.543,1.543,0,0,1-.48-.317,1.509,1.509,0,0,1-.315-.484,1.446,1.446,0,0,1,0-1.143,1.477,1.477,0,0,1,.8-.785,1.49,1.49,0,0,1,.593-.117M480.16,166.059a4.49,4.49,0,1,1,4.5,4.747,4.45,4.45,0,0,1-4.5-4.747m12.005,0v-7.417h-3.224v1.806a5.621,5.621,0,0,0-4.684-2.172,7.8,7.8,0,0,0,0,15.573,5.626,5.626,0,0,0,4.684-2.173v1.8h3.22v-7.418Zm108.944,0a4.49,4.49,0,1,1,4.5,4.747,4.451,4.451,0,0,1-4.5-4.747m12.009,0V152.688h-3.227v7.76a5.621,5.621,0,0,0-4.684-2.172,7.8,7.8,0,0,0,0,15.573,5.624,5.624,0,0,0,4.684-2.173v1.8h3.227Zm-80.936-4.9c2.078,0,3.413,1.3,3.753,3.6h-7.693c.344-2.141,1.644-3.6,3.941-3.6m.065-2.89c-4.346,0-7.386,3.161-7.386,7.786,0,4.715,3.162,7.787,7.6,7.787a9.01,9.01,0,0,0,6.079-2.078l-1.58-2.39a7.071,7.071,0,0,1-4.314,1.551,4.118,4.118,0,0,1-4.435-3.631h11.01c.031-.4.064-.806.064-1.24-.033-4.623-2.891-7.786-7.041-7.786m38.928,7.786a4.489,4.489,0,1,1,4.5,4.748,4.449,4.449,0,0,1-4.5-4.748m12.005,0v-7.411h-3.223v1.806a5.624,5.624,0,0,0-4.683-2.172,7.8,7.8,0,0,0,0,15.573,5.628,5.628,0,0,0,4.683-2.173v1.8h3.224v-7.424Zm-30.212,0a7.491,7.491,0,0,0,7.91,7.787,7.752,7.752,0,0,0,5.33-1.768l-1.548-2.607a6.52,6.52,0,0,1-3.885,1.336,4.756,4.756,0,0,1,0-9.495,6.537,6.537,0,0,1,3.885,1.335l1.548-2.606a7.762,7.762,0,0,0-5.33-1.768,7.489,7.489,0,0,0-7.91,7.786m41.566-7.786a4.377,4.377,0,0,0-3.909,2.172v-1.8h-3.2v14.826h3.228v-8.311c0-2.454,1.054-3.817,3.162-3.817a5.228,5.228,0,0,1,2.016.373l.994-3.039a6.852,6.852,0,0,0-2.3-.4m-86.424,1.551a11.1,11.1,0,0,0-6.047-1.551c-3.756,0-6.175,1.8-6.175,4.747,0,2.417,1.8,3.909,5.116,4.374l1.523.217c1.768.248,2.6.714,2.6,1.551,0,1.147-1.174,1.8-3.38,1.8a7.9,7.9,0,0,1-4.931-1.551l-1.515,2.514a10.7,10.7,0,0,0,6.419,1.924c4.283,0,6.764-2.016,6.764-4.84,0-2.606-1.953-3.969-5.18-4.434l-1.52-.221c-1.395-.181-2.514-.462-2.514-1.455,0-1.084,1.055-1.737,2.823-1.737a9.569,9.569,0,0,1,4.623,1.271l1.4-2.606Zm41.6-1.548a4.367,4.367,0,0,0-3.906,2.173v-1.8h-3.2v14.826h3.224v-8.311c0-2.454,1.054-3.817,3.162-3.817a5.236,5.236,0,0,1,2.017.373l.993-3.039a6.852,6.852,0,0,0-2.3-.4m-27.513.373h-5.272v-4.5h-3.26v4.5h-3.007v2.946h3.007v6.764c0,3.441,1.336,5.489,5.15,5.489a7.575,7.575,0,0,0,4.034-1.146l-.932-2.761a5.962,5.962,0,0,1-2.855.839c-1.611,0-2.137-.994-2.137-2.482v-6.7h5.272Zm-48.2,14.83v-9.3a5.52,5.52,0,0,0-5.833-5.894,5.738,5.738,0,0,0-5.212,2.638,5.444,5.444,0,0,0-4.9-2.638,4.9,4.9,0,0,0-4.343,2.2v-1.833h-3.227v14.826h3.252v-8.221c0-2.574,1.428-3.941,3.632-3.941,2.141,0,3.224,1.4,3.224,3.909v8.252h3.26v-8.222c0-2.573,1.488-3.941,3.628-3.941,2.2,0,3.252,1.4,3.252,3.909v8.252Z" transform="translate(1062 429)" fill="#231f20"/>
      <path id="Path_3" data-name="Path 3" d="M620.079,124.15v-2.168h-.565l-.653,1.488-.649-1.488h-.567v2.168h.4v-1.633l.611,1.409h.416l.61-1.413v1.637h.4Zm-3.582,0v-1.8h.723v-.366h-1.847v.366h.723v1.8h.4Z" transform="translate(1062 429)" fill="#f79410"/>
      <rect id="Rectangle_1" data-name="Rectangle 1" width="48.862" height="87.812" transform="translate(1569.041 474.637)" fill="#ff5f00"/>
      <path id="Path_4" data-name="Path 4" d="M510.139,89.545a55.753,55.753,0,0,1,21.328-43.906,55.846,55.846,0,1,0,0,87.812,55.752,55.752,0,0,1-21.329-43.906" transform="translate(1062 429)" fill="#eb001b"/>
      <path id="Path_5" data-name="Path 5" d="M621.823,89.545a55.843,55.843,0,0,1-90.354,43.906,55.852,55.852,0,0,0,0-87.812,55.843,55.843,0,0,1,90.353,43.906" transform="translate(1062 429)" fill="#f79e1b"/>
    </g>
  </g>
</svg>
