<svg xmlns="http://www.w3.org/2000/svg" width="318.726" height="213.218" viewBox="0 0 318.726 213.218">
  <g id="visa" transform="translate(-1062 -429)">
    <path id="Path_6" data-name="Path 6" d="M284.915,213.218H33.811A33.91,33.91,0,0,1,0,179.407V33.811A33.91,33.91,0,0,1,33.811,0h251.1a33.91,33.91,0,0,1,33.811,33.811v145.6a33.91,33.91,0,0,1-33.811,33.811" transform="translate(1062 429)" fill="#fff"/>
    <path id="Path_7" data-name="Path 7" d="M138.126,139.846H120.019l11.317-69.552h18.11ZM104.785,70.294,87.522,118.132l-2.043-10.3,0,0L79.388,76.557s-.737-6.263-8.59-6.263H42.259l-.335,1.178a67.746,67.746,0,0,1,18.941,7.95L76.6,139.848H95.464l28.81-69.554Zm142.428,69.552H263.84l-14.5-69.553H234.787c-6.722,0-8.359,5.183-8.359,5.183l-27.007,64.37H218.3l3.775-10.331h23.02Zm-19.926-24.6L236.8,89.215l5.352,26.028ZM200.837,87.02l2.584-14.936a52.274,52.274,0,0,0-16.286-3.032c-8.986,0-30.326,3.927-30.326,23.025,0,17.968,25.046,18.191,25.046,27.629s-22.465,7.747-29.879,1.8l-2.692,15.616s8.085,3.928,20.439,3.928,31-6.4,31-23.812c0-18.084-25.271-19.768-25.271-27.63S193.088,82.75,200.837,87.02Z" transform="translate(1062 429)" fill="#2566af"/>
    <path id="Path_8" data-name="Path 8" d="M85.481,107.833,79.388,76.555s-.737-6.262-8.59-6.262H42.259l-.335,1.177A70.161,70.161,0,0,1,68.8,84.964a54.234,54.234,0,0,1,16.683,22.869" transform="translate(1062 429)" fill="#e6a540"/>
  </g>
</svg>
